<?xml version="1.0" encoding="utf-8"?>
<!-- Generator: Adobe Illustrator 26.0.0, SVG Export Plug-In . SVG Version: 6.00 Build 0)  -->
<svg version="1.1" id="Layer_1" xmlns="http://www.w3.org/2000/svg" xmlns:xlink="http://www.w3.org/1999/xlink" x="0px" y="0px"
	 viewBox="0 0 537.1 134.7" style="enable-background:new 0 0 537.1 134.7;" xml:space="preserve">
<style type="text/css">
	.st0{fill-rule:evenodd;clip-rule:evenodd;fill:#F8981E;}
	.st1{fill-rule:evenodd;clip-rule:evenodd;}
	.st2{enable-background:new    ;}
	.st3{fill:#F7F7F7;}
</style>
<g id="Layer_2_00000007399815296602242740000013762644115034876557_">
	<g id="Layer_1-2">
		<path class="st0" d="M332.2,0.2h194.7c5.6,0,10.2,4.6,10.2,10.2v114.2c0,5.6-4.6,10.2-10.2,10.2H332.2c-5.6,0-10.2-4.6-10.2-10.2
			V10.4C322,4.7,326.6,0.2,332.2,0.2z"/>
		<path class="st1" d="M465.9,105l0-81.5h15.8l-0.9,26c4.1-3.2,11-5.1,17.2-5.1c7.1,0.4,13.3,2.8,17.7,7.1c5.4,5.3,8.1,13.4,8,23.3
			c0,6.2-0.9,12.7-3.7,18.1c-4,7.9-12.2,13.6-21.4,13.6c-7.5,0-14-2.4-18.2-6v4.5H465.9z M481.5,74.5c0,12,5,19.2,13.5,19.2
			c9.3,0,12.5-8.9,12.5-17.9s-2.4-19.1-13.1-19.1C485.1,56.7,481.5,65.1,481.5,74.5z"/>
		<path class="st1" d="M393.9,105h-15.7V74.5c0-6.3-0.3-10.7-1-12.5c-1.4-3.9-4.8-5.3-8.6-5.3c-6,0-9.9,3.1-11.6,8.2
			c-0.8,2.4-1.2,7.2-1.2,13.8V105h-15.7V23.4h15.8v26.4c3.2-2.8,9.6-5.3,17.5-5.3c9.4,0,17.5,4.4,19.7,13.6c0.7,3.5,1,7.1,0.9,10.7
			L393.9,105L393.9,105z"/>
		<path class="st1" d="M402.8,45.9h15.7v30.4c0,6.3,0.3,10.7,1,12.6c1.4,3.9,5,5.4,8.6,5.4c5.8,0,10.5-3.6,11.7-8.2
			c0.8-2.4,1-7.3,1-13.9V45.9h15.8V105h-14.7v-6.3c-3.8,4.5-10.7,7.8-18.5,7.8c-9.5,0-17.5-4.3-19.6-13.5c-0.7-3.5-1-7.1-1-10.7
			L402.8,45.9L402.8,45.9z"/>
		<g class="st2">
			<path class="st3" d="M0,105V17.4h28.4c10.8,0,17.8,0.4,21,1.3c5,1.3,9.2,4.2,12.6,8.6c3.4,4.4,5.1,10.1,5.1,17.1
				c0,5.4-1,9.9-2.9,13.6c-2,3.7-4.4,6.5-7.4,8.6c-3,2.1-6.1,3.5-9.2,4.2c-4.2,0.8-10.3,1.3-18.3,1.3H17.7v33H0z M17.7,32.2v24.9
				h9.7c7,0,11.6-0.5,14-1.4c2.4-0.9,4.2-2.3,5.5-4.3c1.3-2,2-4.2,2-6.8c0-3.2-0.9-5.8-2.8-7.9c-1.9-2.1-4.2-3.4-7.1-3.9
				c-2.1-0.4-6.4-0.6-12.7-0.6H17.7z"/>
			<path class="st3" d="M94.1,60.9l-15.2-2.7c1.7-6.1,4.7-10.7,8.8-13.6s10.4-4.4,18.6-4.4c7.5,0,13.1,0.9,16.7,2.7
				c3.7,1.8,6.2,4,7.7,6.8c1.5,2.7,2.2,7.7,2.2,15l-0.2,19.6c0,5.6,0.3,9.7,0.8,12.3c0.5,2.7,1.5,5.5,3,8.5H120
				c-0.4-1.1-1-2.8-1.6-5c-0.3-1-0.5-1.7-0.6-2c-2.9,2.8-5.9,4.9-9.2,6.3c-3.3,1.4-6.8,2.1-10.5,2.1c-6.5,0-11.7-1.8-15.4-5.3
				s-5.6-8-5.6-13.4c0-3.6,0.9-6.8,2.6-9.6c1.7-2.8,4.1-5,7.2-6.5c3.1-1.5,7.5-2.8,13.4-3.9c7.8-1.5,13.3-2.8,16.3-4.1v-1.7
				c0-3.2-0.8-5.5-2.4-6.9c-1.6-1.4-4.6-2.1-9-2.1c-3,0-5.3,0.6-7,1.8C96.4,55.9,95.1,57.9,94.1,60.9z M116.5,74.5
				c-2.2,0.7-5.6,1.6-10.2,2.6c-4.7,1-7.7,2-9.1,2.9c-2.2,1.6-3.3,3.5-3.3,5.9c0,2.4,0.9,4.4,2.6,6.1c1.8,1.7,4,2.6,6.7,2.6
				c3,0,5.9-1,8.7-3c2-1.5,3.4-3.4,4-5.6c0.4-1.4,0.7-4.2,0.7-8.2V74.5z"/>
			<path class="st3" d="M161.4,105l-20.1-63.5h16.3l11.9,41.6l10.9-41.6h16.2l10.6,41.6l12.1-41.6h16.6L215.5,105h-16.1l-10.9-40.8
				L177.7,105H161.4z"/>
			<path class="st3" d="M302.5,105h-16.8V72.6c0-6.9-0.4-11.3-1.1-13.3c-0.7-2-1.9-3.6-3.5-4.7s-3.6-1.7-5.8-1.7
				c-2.9,0-5.5,0.8-7.8,2.4c-2.3,1.6-3.9,3.7-4.8,6.3c-0.9,2.6-1.3,7.5-1.3,14.6V105h-16.8V41.5h15.6v9.3
				c5.5-7.2,12.5-10.8,20.9-10.8c3.7,0,7.1,0.7,10.2,2c3.1,1.3,5.4,3,7,5.1c1.6,2.1,2.7,4.4,3.3,7.1c0.6,2.6,0.9,6.4,0.9,11.3V105z"
				/>
		</g>
	</g>
</g>
</svg>
